<svg xmlns="http://www.w3.org/2000/svg" viewBox="0 0 1110.01 402.87"><defs><style>.cls-1{fill:#ec1c24;}.cls-2{fill:#040404;}.cls-3{fill:#030303;}.cls-4{fill:#030101;}.cls-5{fill:#0b0707;}.cls-6{fill:#241415;}.cls-7{fill:#fcfcfc;}.cls-8{fill:#fefefe;}.cls-9{fill:#eb1c24;}.cls-10{fill:#0b0b0b;}.cls-11{fill:#0e0e0e;}.cls-12{fill:#e91c23;}</style></defs><g id="Layer_2" data-name="Layer 2"><g id="Layer_1-2" data-name="Layer 1"><path class="cls-1" d="M207.32.15C263.78.15,320.24.41,376.7,0c18.24-.13,33.15,12.55,36.62,28.7a26.21,26.21,0,0,1,.52,5.57q0,165.81,0,331.63c0,17.58-16.68,33.92-34.43,33.95q-46.65.09-93.31,0H36.51A36.24,36.24,0,0,1,.06,363.54Q0,200.16,0,36.78A37,37,0,0,1,37.2,0C93.91.44,150.62.15,207.32.15Zm-.39,46.45C123.22,45.66,54,115.51,53.52,199,53.05,280.42,118,350.83,202,353.43c87.55,2.72,156.62-66.83,158.61-149.55C362.78,114.62,289.5,45.13,206.93,46.6Z"/><path class="cls-2" d="M1079.12,269.09c-.15-4.24-.24-8.48-.48-12.72-.1-1.88.38-2.69,2.45-2.58,3.49.18,7.81-1.16,10.26.45,2.71,1.77.88,6.39,1,9.75,0,2.43.92,2.93,3.08,2.86,4-.13,8,0,12-.07,1.76,0,2.31.52,2.42,2.33.6,10.1.65,10.1-9.52,10.1-7.88,0-7.88,0-7.88,7.89,0,25.48-.07,51,.08,76.44,0,3.22-.9,4.15-4,3.79s-7.6,1.35-9.32-.67-.6-6.17-.61-9.4q0-32.22,0-64.45c0-11.95-1.67-13.6-13.58-13.6-3.24,0-6.51.19-9.73-.06-2.61-.21-3,.82-3,3.14.07,27,0,54,.12,80.93,0,3.21-.67,4-4,4.22-6.35.35-11.69-1.34-17.16-4.57-18.11-10.72-36.46-21-54.81-31.34-2.56-1.44-3.33-3.06-3.27-5.89.18-8.84.06-8.86,9-8.84,5.13,0,10.24-.14,15-2.3,7.09-3.19,11.54-8.49,13-16.2a1.59,1.59,0,0,0,.13-1.68l-1,.83c-7.49,7.33-16.49,8.15-25.69,4.79s-13.73-10.76-14.34-20.45c-.14-2.16-.88-2.75-2.92-2.62-3.21.21-7.44-1-9.39.62s-.62,6.06-.63,9.25c0,24.86-.07,49.71,0,74.57,0,2.89-.63,4.07-3.68,3.72-3.32-.37-7.71,1.35-9.76-.66s-.6-6.38-.6-9.71c-.06-21.23,0-42.46,0-63.7,0-1.62,0-3.25-.08-4.87-.42-6.77-2.89-9.13-9.6-9.18-4.5,0-9,.18-13.49-.07-2.75-.16-3.18.82-3.17,3.33.09,27,0,54,.13,80.93,0,3-.53,4.37-3.8,3.93s-7.73,1.41-9.67-.79c-1.64-1.87-.58-6.16-.59-9.39q-.11-30.16-.17-60.32a23.09,23.09,0,0,0-1.51-7.66c-3.69-10.33-11.1-13-21.15-11.05-8.66,1.69-12.78,9.9-11.09,20.36,1.27,7.87,7.35,12.47,15.88,12,6.47-.37,6.47-.37,6.47,6.09,0,6.13,0,6.26-6,6.57-8.53.45-16.43-1.12-22.37-8-.81-.93-1.3-1.65-2.49-.28-7.19,8.34-16.6,9.15-26.69,7.84-2.44-.31-3.22-1.31-2.94-3.62a31.08,31.08,0,0,0,0-3.74c0-5.92,0-6,6.06-5.16s11.45-.11,14.88-5.46a18.05,18.05,0,0,0,1-18.56c-2.55-5.07-7.62-6.6-12.92-6.85s-10.74-.18-16.1-.07c-2,0-2.75-.45-2.78-2.65-.17-9.79-.25-9.8,9.54-9.78,5.23,0,10.47-.14,15.68.81a24.76,24.76,0,0,1,14.9,8.59,25.1,25.1,0,0,1,19.4-10.93c7.94-.57,15.41.64,22.35,6.7,0-5.22.17-9.85-.06-14.47-.14-2.87.58-4.1,3.66-3.74,3.32.39,7.68-1.34,9.74.65s.61,6.38.6,9.71c0,2.07.49,2.72,2.67,2.74,5.35,0,10.69-.72,16.06,0a15,15,0,0,1,7.73,2.92c0-4.36.13-8.74-.06-13.1-.1-2.39.73-3,3-2.89,3.47.23,7.86-1,10.19.62s.72,6.3.69,9.61c0,2.43.83,2.87,3,2.84,8.46-.11,16.93-.05,25.62-.05-.79,4.77-2.16,9.22-1.65,13.87.78,7,4.06,10.34,10.6,10.75,6.69.41,11.27-2.92,12.9-9.4a28.65,28.65,0,0,0,.24-12.26c-.42-2.29.05-3.33,2.54-3a21.44,21.44,0,0,0,3,0c7.65,0,7.64,0,9.25,7.66,1.87,8.95,3.52,17.93,1.18,27-3.5,13.64-12.1,22.27-26.26,26l41.82,24v-4.58c0-29.48.06-58.95-.08-88.43,0-3.56.52-5.41,4.57-4.72,3,.5,7.13-1.34,8.88.82,1.49,1.83.62,5.74.44,8.71-.17,2.66.4,3.85,3.39,3.56,3.59-.35,7.22-.26,10.84-.3,4.28-.05,8.42.52,12.11,2.92l.55.46C1079.15,269.67,1079.14,269.38,1079.12,269.09Z"/><path class="cls-3" d="M727.31,402.46C721,395.38,715.4,388.66,708,383.6a42.91,42.91,0,0,1-4.05,9.08c-9.36,15.52-31,11.36-37.22.49-6.63-11.52-.68-25.32,12.4-28.43,1.55-.37,3.16-.16,3.14-2.66-.09-16.84,0-33.68,0-51.29l-53.16,32.52c0-5.2,0-9.84,0-14.49,0-1.39,1.3-1.71,2.21-2.27,3.83-2.33,7.65-4.7,11.56-6.88,1.63-.9,1.71-1.7.73-3.12a29,29,0,0,0-13-10.31c-2-.83-2.66-1.89-2.74-4.11-.37-10.81,2.1-20.55,9.88-28.46,11.14-11.32,31.59-11.63,43.15-.71.25.23.54.42,1.33,1,0-6,.12-11.54-.06-17.07-.07-2.43.57-3.33,3.09-3.15a81.69,81.69,0,0,0,9,0c1.64-.05,2.21.52,2.15,2.15-.11,2.49.18,5-.09,7.48-.31,2.86.69,3.47,3.47,3.46,29.71-.11,59.43-.07,89.15-.07,4.93,0,4.93,0,4.93,4.9,0,7.48,0,7.42-7.52,7.51-3.2,0-7.45-1.4-9.28.68-1.56,1.78-.47,5.94-.47,9,0,24.86-.07,49.72.08,74.57,0,3.19-.92,3.65-3.91,3.9-6.52.56-11.58-1.54-16.63-5.62-12.62-10.17-25.63-19.88-38.57-29.66-2-1.52-2.38-3.23-2.77-5.58-1.38-8.31,2-13.59,8.76-18.24,11.55-8,23.21-15.53,36.86-19.31,3.43-.95,2.09-3.32,2.46-5.3.69-3.79-.82-4.65-4.55-4.61-19.48.22-39,.15-58.46,0-2.57,0-3.59.29-3.58,3.32q.22,39.54,0,79.07c0,2.28.42,3.35,2.89,4.17,11.1,3.7,19.56,11.22,27.26,19.71a3.24,3.24,0,0,1,.87,2.37C727.3,392.39,727.31,397,727.31,402.46Zm35.53-52.23c0-15.94,0-31,0-46,0-2.26-.94-2.05-2.51-1.45-11.41,4.32-21.5,10.8-30.81,18.6-1.25,1.05-1.39,1.67,0,2.76C740.45,332.61,751.28,341.15,762.84,350.23ZM661.05,277.86c-10.59.16-17.77,6.45-19.2,16.71-.28,2,.09,3.18,2,4.18,4.68,2.44,8,6.37,10.44,10.92,1,1.78,1.69,1.93,3.35.89q10.9-6.87,22-13.5c1.74-1,2-2.13,1.52-4C678.52,283.49,671,277.72,661.05,277.86ZM687.84,375a18.21,18.21,0,0,0-5.73.78c-4.37,1.68-6.1,4.65-5.34,9.38.63,3.92,3.58,6.41,7.82,6.6,5.72.26,8.84-1.92,11.24-7.82,2.67-6.55,2.52-6.89-4.16-8.37C690.22,375.25,688.73,375.13,687.84,375Z"/><path class="cls-4" d="M564.31,20.6c0,10.61,0,21.22.16,31.83,0,2.35-1,2.6-2.88,2.57q-7.11-.12-14.23.09c-5,.15-6.62,1.75-7,6.59-.87,11.47-.41,23-.39,34.44,0,18.23-.27,36.46.24,54.68.27,9.65,1.51,18.92,7.18,27,5,7.12,12,10.62,20.55,11.29,8.85.7,17-.8,24.67-5.74s11.68-12,13-20.78a145.42,145.42,0,0,0,1.47-22.27q0-38,0-76c0-7.74-1.37-9.11-9.07-9.25-4-.07-8-.15-12,0-1.93,0-2.9-.25-2.87-2.57.16-10.61.13-21.22.17-31.83L584,20q43.47-.06,86.93-.17c2,0,2.45.65,2.44,2.55-.09,10-.11,20,0,30,0,2.18-.69,2.72-2.77,2.69-5.11-.08-10.24,0-15.35.16-4,.12-6.27,2.82-6.3,6.79-.31,31.08.67,62.16-.5,93.22-.61,16-4.22,31.22-14.15,44.49a73.73,73.73,0,0,1-31.31,24.1c-15.13,6.36-31,8-47.08,6.56-17.82-1.56-34.18-7.48-48.05-19.42-12.92-11.12-21.11-24.82-23.42-41.74a122.79,122.79,0,0,1-.92-17.07c.11-27.23,0-54.46,0-81.69a48.21,48.21,0,0,0-.66-9.65c-.78-3.83-2.35-5.55-6.39-5.67-4.74-.14-9.49-.19-14.23-.08-2,0-2.82-.41-2.8-2.65.12-10,.09-20,0-30,0-1.83.28-2.6,2.39-2.59q51,.16,101.91.18C563.91,20.19,564.11,20.39,564.31,20.6Zm-52.32,3H466.27c-1.62,0-3.2-.32-3.15,2.31.13,7.62.1,15.24,0,22.86,0,2.07.84,2.53,2.68,2.48,3.12-.08,6.25-.08,9.37.1,7.43.44,10.58,2.86,11.35,8.95A89.45,89.45,0,0,1,487.18,71c.07,14.87-.08,29.73.06,44.6.15,15.85-.31,31.7.51,47.57,1.25,24.11,13.37,41.48,33.76,52.64,27.51,15.06,56.27,14.9,84.69,2.36,18.23-8,29.71-22.7,35.29-41.68,2.93-10,3.68-20.41,3.72-30.82.12-28,.1-56,.25-83.94,0-6.49,3.66-10,10.14-10.3,3.74-.18,7.5-.24,11.24-.22,1.77,0,2.79-.27,2.76-2.42-.09-7.61-.07-15.23,0-22.85,0-1.76-.54-2.4-2.35-2.39q-39,.06-78,0c-1.74,0-2.4.48-2.38,2.31.08,7.62.1,15.24,0,22.86,0,2,.74,2.56,2.63,2.5,3-.1,6,0,9,0,8.89.15,12.25,3.44,12.26,12.27,0,27.73.06,55.47-.06,83.2a91.66,91.66,0,0,1-2,20.07c-1.25,5.49-3.53,10.54-7.61,14.35-10.6,9.91-23.17,14-37.52,11-7.23-1.5-13.62-4.78-18.24-11-6-8.05-8.3-17.24-8.57-27.05q-1.26-46.08,0-92.16c.18-6.79,3.91-10.32,10.8-10.61,3.5-.15,7-.23,10.49-.11,2.16.08,2.77-.68,2.74-2.78-.11-7-.2-14,0-21,.1-3-.59-4-3.82-4C542,23.71,527,23.61,512,23.61Z"/><path class="cls-5" d="M786.47,230.6c-53.92.33-92-37.59-102.05-82.45-7.24-32.52-2.19-63.08,17.59-90.36,16.65-23,39.5-36.18,67.52-40.12,21.44-3,42.32-.71,62.16,8.47,2,.93,3,.66,3.56-1.28,1.37-4.49,4.46-5.43,8.83-5.11,5.47.39,11,.19,16.48,0,2.05-.06,3.06.43,3.63,2.55Q874,58.78,884,95.15c.55,2,.47,2.83-1.69,3.44-9.47,2.67-18.92,5.41-28.3,8.34-2.15.68-2.7-.12-3.55-1.75-5.91-11.28-12-22.48-20.71-31.9C820.4,63.16,809.18,56.2,795,55.85c-18-.45-31.62,7.53-40.88,22.91-8.16,13.54-10.21,28.5-9.53,43.93.79,18.17,6.24,34.76,17.9,49,14,17.11,34.27,21.19,54.1,14.66,16.53-5.45,29.06-16.61,40.06-29.68a45.6,45.6,0,0,0,5.21-6.84c1.83-3.28,3.29-3.5,6.31-1.08,7.29,5.84,14.93,11.26,22.43,16.85,1,.78,2.39,1.24,1,3.08-11.2,15.06-22.68,29.91-38.12,40.94C833.7,223.74,811.26,230.58,786.47,230.6Zm4.66-3.73c15.92.12,34.86-4.88,52.39-15.14,17.88-10.48,30.59-26.2,42.89-42.34,1.11-1.46.47-2-.7-2.84-5.54-4.05-11.16-8-16.48-12.35-2.94-2.4-4.46-2.36-6.84.88-9.8,13.38-21.85,24.37-36.8,31.74-21.62,10.64-49.79,9-67-14.19-20.56-27.79-23.51-58.37-10.64-90,7.47-18.34,21.92-29.09,42.23-30.53,16.84-1.19,30.24,6.05,41.5,17.89,8.42,8.85,14.45,19.37,20.23,30,.84,1.55,1.37,3.11,3.84,2.35,7.39-2.26,14.84-4.34,22.28-6.41,1.7-.48,2-1.17,1.53-2.93Q870.33,59.54,861.25,26c-.47-1.74-1.23-2.43-3.08-2.38q-7.68.18-15.36,0A3.6,3.6,0,0,0,839,25.83c-1,2-1.8,4.76-3.48,5.57-2.06,1-4.13-1.57-6.23-2.49-19.55-8.6-40-10.8-60.83-7.43C739.87,26.11,717.33,40.6,701.55,65c-13.35,20.71-18,43.52-15.81,67.93,2.31,25.34,12.28,47.26,30.09,65.27C735.23,217.86,759.22,226.91,791.13,226.87Z"/><path class="cls-5" d="M1003.92,16.52a103.85,103.85,0,0,1,45,9.66c2.11,1,3,.39,3.59-1.43,1.36-4.25,4.2-5.33,8.51-5,5.71.42,11.48.16,17.23.07,1.77,0,2.5.46,3,2.3q9.91,36.8,20.1,73.51c.49,1.77.18,2.4-1.49,2.88-9.57,2.75-19.15,5.46-28.66,8.43-2.21.7-2.77-.2-3.58-1.79-5.22-10.23-10.81-20.27-18.23-29.08-10.78-12.8-24-21.17-41.41-20.18-16.45.93-28.69,9.19-37,23.24-8.49,14.43-10.25,30.34-9.07,46.64,1.25,17.33,6.86,33.14,18.26,46.52,10.8,12.69,24.53,18.05,41.21,16.62,13.65-1.17,24.92-7.35,35.41-15.46a111,111,0,0,0,23.09-24.88c1.5-2.16,2.36-2.09,4.24-.65,7.73,5.9,15.59,11.64,23.37,17.48,1.06.8,2.77,1.3,1.2,3.39-11.86,15.81-23.64,31.93-40.65,42.54-37.4,23.32-76.61,27.38-116,5.86C922.53,201,906,174.49,900.3,141.46,896,116.52,899.19,92.41,911.46,70c16.68-30.41,42.4-47.86,76.78-52.57A135.06,135.06,0,0,1,1003.92,16.52ZM1001.7,20c-2.82.16-6.94.34-11.05.63a50.85,50.85,0,0,0-5.18.74c-31.77,5.63-55.62,22.42-71,50.86-11.92,22.07-14.86,45.78-10.3,70.11,5.91,31.56,22.3,56.31,50.67,72.34,16.89,9.55,35.21,12.87,54.45,12,21.24-.91,40.73-7.18,58.11-19.39,14.37-10.11,25.28-23.66,35.82-37.51,1.55-2,.39-2.77-1-3.78-5.73-4.22-11.52-8.37-17.12-12.76-2.05-1.61-3.1-1.52-4.65.62a109.57,109.57,0,0,1-21.7,22.63c-10.8,8.37-22.39,14.78-36.43,16.05-17.85,1.61-32.73-4-44.49-17.43s-17.79-29.3-19.42-46.92c-1.67-18.14.4-35.58,9.67-51.73,10.19-17.75,30.61-27.47,50.52-23.84,14,2.55,24.7,10.34,33.55,21,6.8,8.2,12.2,17.35,17.12,26.76,1.08,2.06,2.09,2.51,4.3,1.81q10.17-3.18,20.48-5.92c2.52-.67,3.28-1.44,2.49-4.24-5.31-18.71-10.39-37.49-15.55-56.24-1.1-4-1.06-9.25-3.66-11.51-2.8-2.45-8.15-.24-12.32-.81-5.52-.75-9.38.76-11.11,6.38-.52,1.7-1.44,2.27-3.34,1.22C1035.78,23,1019.66,20.32,1001.7,20Z"/><path class="cls-2" d="M544.06,323c0,13.61-.09,27.22.07,40.82,0,2.87-.85,3.29-3.53,3.56-6.77.67-12-1.53-17.29-5.8-12.69-10.28-25.82-20-38.84-29.89a5.16,5.16,0,0,1-2.29-4.65c0-11.71-.12-11.8,9.33-18.94,11.1-8.37,23-15.41,36.47-19.18,1.83-.52,2.38-1.45,2.21-3.2a15.6,15.6,0,0,1,0-3.74c.33-2.36-.6-2.87-2.87-2.86-17.11.1-34.21,0-51.31.14-2.91,0-3.5-.79-3.46-3.53.12-8.94,0-8.95,8.89-8.95,25.34,0,50.69.06,76-.07,3,0,4,.63,4,3.83-.21,8.63-.05,8.64-8.75,8.64s-8.64,0-8.64,8.61Zm-14.19,26.85V302.33c-7.53,2-20.15,8.76-27.64,14.91-2.19,1.8-6.11,3.29-6,5.59.11,1.93,3.89,3.69,6.11,5.44C511.42,335.41,520.5,342.52,529.87,349.88Z"/><path class="cls-2" d="M589,265.71c13.83.08,24.56,10.44,24.66,23.81.11,13.9-10.54,24.3-24.86,24.27-14.6,0-25.24-10.44-25.06-24.51C563.93,275.81,574.84,265.63,589,265.71Zm-11.8,24c0,7.4,4.6,12.3,11.56,12.33s11.51-5,11.48-12.41c0-7-4.81-12-11.56-11.9S577.2,282.62,577.21,289.69Z"/><path class="cls-2" d="M617.76,368.35l-6.91-4.76c-14.74-10.22-29.44-20.5-44.26-30.61a5.76,5.76,0,0,1-2.92-5.78c.24-3.69.06-7.4.06-11.09,1.46-.29,2,.71,2.79,1.24q24.36,17,48.73,34c1.81,1.25,2.7,2.52,2.57,4.82C617.6,360,617.76,363.81,617.76,368.35Z"/><path class="cls-2" d="M491.1,370.63a9,9,0,0,1-.4-18.07,9,9,0,1,1,.4,18.07Z"/><path class="cls-2" d="M723.73,352.55a9.05,9.05,0,1,1-.53,18.08,8.89,8.89,0,0,1-8.69-8.91A9,9,0,0,1,723.73,352.55Z"/><path class="cls-6" d="M584,20l-.6.63C583.2,20.06,583.42,19.87,584,20Z"/><path class="cls-6" d="M564.31,20.6c-.2-.21-.4-.41-.59-.62C564.24,19.88,564.46,20.06,564.31,20.6Z"/><path class="cls-7" d="M322.09,155.39c-1.46-6.63-7.42-9.2-12.21-13.58-.28,4.44-.4,4.67.65,5.25C314.7,149.33,317.8,153,322.09,155.39ZM106.92,277.61a3,3,0,0,0-.35,6,2.87,2.87,0,0,0,3.17-2.89A2.76,2.76,0,0,0,106.92,277.61Zm80.62,2.53a2.85,2.85,0,0,0-3-2.51,2.78,2.78,0,0,0-3,3,2.72,2.72,0,0,0,3,3C186.25,283.54,187.48,282.56,187.54,280.14Z"/><path class="cls-8" d="M1079.12,269.09c0,.29,0,.58,0,.87l-.55-.46A2.78,2.78,0,0,1,1079.12,269.09Z"/><path class="cls-1" d="M512,23.61c15,0,30,.1,45-.09,3.23,0,3.92.94,3.82,4-.23,7-.14,14,0,21,0,2.1-.58,2.86-2.74,2.78-3.49-.12-7,0-10.49.11-6.89.29-10.62,3.82-10.8,10.61q-1.22,46.06,0,92.16c.27,9.81,2.54,19,8.57,27.05,4.62,6.18,11,9.46,18.24,11,14.35,3,26.92-1.06,37.52-11,4.08-3.81,6.36-8.86,7.61-14.35a91.66,91.66,0,0,0,2-20.07c.12-27.73.09-55.47.06-83.2,0-8.83-3.37-12.12-12.26-12.27-3,0-6-.14-9,0-1.89.06-2.66-.46-2.63-2.5.1-7.62.08-15.24,0-22.86,0-1.83.64-2.32,2.38-2.31q39,.06,78,0c1.81,0,2.36.63,2.35,2.39-.07,7.62-.09,15.24,0,22.85,0,2.15-1,2.43-2.76,2.42-3.74,0-7.5,0-11.24.22-6.48.31-10.11,3.81-10.14,10.3-.15,28-.13,56-.25,83.94,0,10.41-.79,20.85-3.72,30.82-5.58,19-17.06,33.64-35.29,41.68-28.42,12.54-57.18,12.7-84.69-2.36-20.39-11.16-32.51-28.53-33.76-52.64-.82-15.87-.36-31.72-.51-47.57-.14-14.87,0-29.73-.06-44.6a89.45,89.45,0,0,0-.65-10.73c-.77-6.09-3.92-8.51-11.35-8.95-3.12-.18-6.25-.18-9.37-.1-1.84,0-2.71-.41-2.68-2.48.09-7.62.12-15.24,0-22.86-.05-2.63,1.53-2.31,3.15-2.31Z"/><path class="cls-9" d="M791.13,226.87c-31.91,0-55.9-9-75.3-28.63-17.81-18-27.78-39.93-30.09-65.27-2.22-24.41,2.46-47.22,15.81-67.93,15.78-24.44,38.32-38.93,66.91-43.56,20.87-3.37,41.28-1.17,60.83,7.43,2.1.92,4.17,3.5,6.23,2.49,1.68-.81,2.5-3.57,3.48-5.57a3.6,3.6,0,0,1,3.81-2.26q7.68.2,15.36,0c1.85,0,2.61.64,3.08,2.38q9.11,33.57,18.36,67.09c.49,1.76.17,2.45-1.53,2.93-7.44,2.07-14.89,4.15-22.28,6.41-2.47.76-3-.8-3.84-2.35-5.78-10.66-11.81-21.18-20.23-30-11.26-11.84-24.66-19.08-41.5-17.89C769.92,53.56,755.47,64.31,748,82.65c-12.87,31.61-9.92,62.19,10.64,90,17.16,23.19,45.33,24.83,67,14.19,14.95-7.37,27-18.36,36.8-31.74,2.38-3.24,3.9-3.28,6.84-.88,5.32,4.33,10.94,8.3,16.48,12.35,1.17.85,1.81,1.38.7,2.84-12.3,16.14-25,31.86-42.89,42.34C826,222,807.05,227,791.13,226.87Z"/><path class="cls-9" d="M1001.7,20c18,.29,34.08,3,48.91,11.12,1.9,1.05,2.82.48,3.34-1.22,1.73-5.62,5.59-7.13,11.11-6.38,4.17.57,9.52-1.64,12.32.81,2.6,2.26,2.56,7.55,3.66,11.51,5.16,18.75,10.24,37.53,15.55,56.24.79,2.8,0,3.57-2.49,4.24q-10.3,2.73-20.48,5.92c-2.21.7-3.22.25-4.3-1.81C1064.4,91.05,1059,81.9,1052.2,73.7c-8.85-10.66-19.58-18.45-33.55-21-19.91-3.63-40.33,6.09-50.52,23.84-9.27,16.15-11.34,33.59-9.67,51.73,1.63,17.62,7.67,33.53,19.42,46.92s26.64,19,44.49,17.43c14-1.27,25.63-7.68,36.43-16.05a109.57,109.57,0,0,0,21.7-22.63c1.55-2.14,2.6-2.23,4.65-.62,5.6,4.39,11.39,8.54,17.12,12.76,1.37,1,2.53,1.74,1,3.78-10.54,13.85-21.45,27.4-35.82,37.51-17.38,12.21-36.87,18.48-58.11,19.39-19.24.82-37.56-2.5-54.45-12-28.37-16-44.76-40.78-50.67-72.34-4.56-24.33-1.62-48,10.3-70.11,15.35-28.44,39.2-45.23,71-50.86a50.85,50.85,0,0,1,5.18-.74C994.76,20.37,998.88,20.19,1001.7,20Z"/><path class="cls-10" d="M279.57,259.62c-6.23,3.54-10.67,1.87-12.68-5-.52-1.78-1.63-1.48-2.84-1.59-1.75-.17-1.69,1-1.69,2.13,0,8.12,0,16.23,0,24.35,0,1.66.28,3.13-2.33,3.14s-2.41-1.33-2.4-3.07q.06-10.49,0-21c0-4.86-3.37-7.18-7.86-5.54-1.58.58-.87,1.89-.87,2.85-.07,7.86-.05,15.73,0,23.59,0,1.66.29,3.13-2.33,3.14s-2.39-1.36-2.38-3.07c0-6.24.15-12.49,0-18.73s-2.48-8.71-7.14-8c-3.07.44-4.28,2.53-4.27,5.22s1.08,5.18,4.46,5.37c1.56.08,3.26-.49,3.1,2.29s-1.87,2-3.39,2.2c-2.85.34-4.89-2.95-6.91-2.46-2.18.53-4.06,2.68-6.76,2.44-1.41-.12-3.11.41-3.22-2-.08-1.87.33-2.72,2.45-2.5,3.36.36,5.14-1.41,5.41-4.71.27-3.47-1.73-5-4.84-5.43a32.93,32.93,0,0,0-3.73-.17c-1.32,0-2.7.38-2.71-1.9,0-2.08,1-2.17,2.52-2.12,3.46.13,7.05-.48,10,2.09a1.17,1.17,0,0,0,1.88,0c3.9-3.78,8.26-3.2,12.63-1.12.93-1,.61-2,.54-3-.14-1.75.35-2.5,2.25-2.35,1.45.12,2.83-.09,2.47,2.06s.74,2.64,2.57,2.3a16.2,16.2,0,0,1,6,.46c1.42-1.42-1.9-4.95,2.62-4.82,1.72.05,2.61.39,2.29,2.26s.79,2.27,2.42,2.16,3.25.06,4.86,0,2.07.47,1.81,2.14c-.45,3,.07,5.88,3.8,5.91,3.36,0,4.4-2.77,4.09-5.54-.35-3,1.44-2.51,3.13-2.47,1.34,0,1.42,1,1.67,2,2.26,9,.49,13.44-7.64,18.38l13.33,7.79c0-10.35.16-20.06-.08-29.77-.09-3.27,1.65-2.91,3.66-2.81.73,0,1.24.39,1.11,1.13-.64,3.64,1.55,3.4,4,3.05a8.23,8.23,0,0,1,2.6.24c1.52.32,2.4.1,2.09-1.79-.22-1.36-.44-2.77,1.84-2.69,1.78.06,3.23,0,2.92,2.47s1.69,1.88,3,1.91,2.62-.15,2.62,2-1.19,2.19-2.6,2c-2.93-.46-3.16,1.12-3.12,3.46.11,7.62,0,15.24.06,22.85,0,1.88.15,3.37-2.59,3.32S303,281.17,303,279.5c0-7.24,0-14.48,0-21.73,0-3.75-4.65-6.45-7.83-4.6-1.08.62-.61,1.78-.62,2.7,0,7.62,0,15.23,0,22.85,0,3.9-1.48,5.29-4.81,3.58-7.07-3.64-13.88-7.79-20.8-11.73-1.57-.89-1.05-2.42-1-3.7.09-1.83,1.65-1.15,2.59-1.14,4.12,0,7.73-.72,9.41-5.12.21-.53.18-.93-.44-1.1l.49.27.09-.49Z"/><path class="cls-11" d="M112.09,140.19c1-.17,1.53-2.06,2.82-.7.91,1,2,1.7,1.91,3.41a9.11,9.11,0,0,1-13.34,7.72c-3.75-1.93-5.84-5.3-7.44-9.05-.61-1.4-.22-2.7,1-3.15,1.44-.53,1.27,1.21,1.62,2,1.24,2.62,2.62,5.14,5,6.85,3.74,2.65,7.47,1.31,9-3.42-3.89,1-7.68,1.21-9.8-2.85-1.49-2.86-.56-5.5,2.75-8.09-3.59,0-6.37.07-9.15,0-1,0-2.69.77-2.77-1.4-.1-2.51,1.82-1.55,2.91-1.56,8.6-.08,17.2,0,25.8,0,2.53,0,4.36-.12,5.25-3.54,1.41-5.48,8.79-7.77,15.54-5.68,2.39.74,4.33,2.42,6.83,2.94,1.77.38.55,1.43.14,2.15-.84,1.48-3.06,1.7-3.54,3.89,2.88.24,5.21.93,6.29-3.13,1.46-5.49,8.37-8,15.06-6a46.44,46.44,0,0,1,5.73,2.68c1.88.87,2.93,1.71.88,3.68-1.23,1.2-.66,2.64,1,2.89,1.37.22,1.68.76,1.55,1.93-.18,1.55-1.35,1.17-2.28,1.18-3.75,0-7.5.09-11.24,0-1.79-.05-2.4.52-2.34,2.33.13,3.75.11,7.5,0,11.24-.06,1.9.73,2.5,2.45,2.14,2.59-.54,5.08-1.35,6.95-3.36a3.52,3.52,0,0,0,.55-4.48c-.89-1.41-2.39-1.23-3.67-.48s-2,.56-2.58-.8c-.63-1.53.38-2.1,1.48-2.43,2.69-.82,5.52-1.46,7.52,1.26s1.74,5.38,0,8c-2.52,3.8-10.34,6.61-14.79,5.52-1.58-.38-1.1-1.43-1.1-2.29,0-4.74,0-9.49,0-14.23,0-.89.46-2.16-1.14-2.26-1.89-.13-1.43,1.31-1.44,2.33,0,4.37.07,8.74-.07,13.11,0,1.18,1.16,3.22-1.55,3.33s-1.65-2-1.68-3.15c-.12-4.49,0-9-.06-13.48,0-1,.5-2.3-1.49-2.24s-1.46,1.29-1.47,2.31c0,4.62,0,9.24,0,13.86,0,1.15.45,2.57-1.65,2.58s-1.84-1.2-1.84-2.49c0-2.37,0-4.74,0-7.11,0-1-.14-2.07-1.4-2.34s-1.88.52-2.4,1.39c-1.2,2-2.21,4.19-3.54,6.13-1.2,1.74-3.08,2-5,1.39s-2.11-2.19-1.72-3.92c3.86,1.41,6.31-.31,6.4-4.53.05-2.59-1.3-4.48-3.2-6.06-1.1-.92-2.41-1.6-3.78-1s-.61,2-.63,3c-.08,3.87.11,7.75-.11,11.6-.08,1.37,1.5,3.87-1.61,4s-1.7-2.46-1.76-3.79c-.2-4.24-.06-8.49-.09-12.74,0-1,.43-2.22-1.48-2.28s-1.92.94-1.91,2.3c0,4.74,0,9.49,0,14.23,0,1.38,0,2.39-1.92,2.36S120,150.6,120,149.56c0-4.49-.21-9,.06-13.48.16-2.73-.8-3.41-3.27-3.2-2.09.17-4.2,0-7,0,2.48,2.1,2.9,4.16,1.3,6.41-1.37.63-2.11-.32-2.63-1.25-.33-.59,1.4-1.92-.62-2.07a1.87,1.87,0,0,0-2,1.39,2.63,2.63,0,0,0,.83,3C108.52,141.91,110.32,141.27,112.09,140.19Zm24-10.34c5.32,0,6.06-.25,8.59-3.09.52-.58,1.55-1,.27-2-2.45-1.88-9-2.19-11.76-.39-1.51,1-3,2.4-2.63,4.15.43,2.08,2.65.87,4,1.26A6.08,6.08,0,0,0,136.14,129.85Zm21-4.29c-2.31,3.18-1.35,4.27,1.62,4.27,3.24,0,6.49,0,9.74,0,.76,0,1.88.56,2.26-.59s-.41-1.94-1.19-2.55c-2.92-2.3-5.91-1.31-8.77.1C159.2,127.59,157.93,127.93,157.18,125.56Zm-18.24,7.33c.27,4.15,3.05,3.93,5.79,3.66,1.57-.15,1.16-1.69.88-2.22C144,131.27,141.18,133.55,138.94,132.89Z"/><path class="cls-10" d="M185.52,294c-2.09-2-3.6-4.23-6.08-5.65-1.72,3.75-4.08,6.74-8.9,5.94-3-.5-5.06-1.93-5.68-5s.33-5.81,3.51-6.94c2.09-.74,2.46-1.95,2.4-3.92-.13-4.61,0-9.22,0-14.66L153.4,274.18c-2.12-4.94,1.7-6.18,4.77-7.93-.81-1-1.29-2.13-2.09-2.42-4.31-1.55-4.27-4.65-3-8.1,1.46-4,4.17-6.74,8.64-7.23a10.87,10.87,0,0,1,8.41,2.27c1.13-1.16.55-2.46.57-3.59,0-1.51,0-2.67,2.11-2.49,1.55.14,3.1-.12,2.65,2.26-.36,2,.72,2.17,2.38,2.16,9.11-.07,18.22,0,27.32,0,1.44,0,3-.44,3,2.06s-1.79,2-3.1,1.89c-2.17-.2-2.74.62-2.71,2.73.11,7.74.05,15.48,0,23.22,0,3.66-2,5.08-5,3.05-5.16-3.48-10.06-7.35-14.94-11.23-1.81-1.44-1.26-5.17.71-6.84a36.28,36.28,0,0,1,12.19-7.06c1.46-.48,2.66-.84,2.31-2.67s-1.72-1.13-2.72-1.13c-5.86-.05-11.72,0-17.58-.06-1.51,0-1.9.51-1.9,1.92q.08,12.55,0,25.1a2.13,2.13,0,0,0,1.73,2.37A19.05,19.05,0,0,1,182.8,286C185.18,288,186.73,290.15,185.52,294Zm12.18-17.13c0-5.24,0-9.56,0-13.87,0-1.84-.64-2.2-2.24-1.45a31.77,31.77,0,0,0-9.4,6.18Zm-34.41-24.07c-2.66-.28-4.67,1.25-5.72,3.91-1.34,3.41,2.22,4.35,3.69,6.15s2.86-.83,4.36-1.24a8.78,8.78,0,0,0,1.92-1.13c3.15-1.91,3.3-3.72.61-6.25C166.86,253,165.31,252.8,163.29,252.79Zm9.21,32.38c-1.94.13-3.62.73-3.66,2.92,0,1.78,1.27,2.6,3,2.55,2.31-.06,3.37-1.67,3.57-3.6C175.63,285,173.68,285.5,172.5,285.17Z"/><path class="cls-11" d="M309.59,133c-4-.05-8-.12-12-.15-.71,0-1.59-.2-1.91.72s.25,1.43.77,2a6.73,6.73,0,0,0,6.18,1.9c3.13-.49,5.22,1.49,4.84,4.51-.72,5.58-8.61,11-14.08,9.85-1.64-.35-1.08-1.44-1.09-2.27-.06-4.75,0-9.49-.05-14.24,0-.87.5-2.15-1.11-2.27-1.86-.15-1.49,1.23-1.49,2.28,0,4.75,0,9.49,0,14.24,0,1.09.25,2.2-1.55,2.28-2.05.1-1.78-1.14-1.78-2.38,0-4.25.13-8.5-.07-12.74-.06-1.24,1.41-3.59-1.46-3.67-3.28-.09-1.59,2.55-1.67,3.87-.23,4.11-.07,8.24-.09,12.36,0,1.17.38,2.51-1.68,2.56s-1.71-1.26-1.71-2.45c0-4.37-.25-8.76.07-13.11.22-2.94-.88-3.64-3.47-3.42-1.74.15-3.49,0-5.92,0,1.89,1.21,3.33,2,4.61,3a5,5,0,0,1,1.66,5.73,5.22,5.22,0,0,1-4.75,3.66c-1,.13-2.08.3-2.07-1.26,0-1-.26-2.06,1.38-2,1.93.11,2.92-1,2.37-2.79s-2.42-2.45-4.22-2.4c-1.35,0-.79,1.33-.8,2.06-.06,3.63,0,7.25-.05,10.87,0,.76.45,1.89-.94,2-1,.1-2,.19-2.61-.91-2.05-3.56-4.67-6.35-8.93-7.39-1.9-.47-1.95-3.38-.15-4.56,2.86-1.88,5.81-3.62,9-5.57-9.42-1.57-16.06,4.25-14.44,12.22.65,3.22,2.69,4.62,5.88,4.47.79,0,1.85-1.44,2.16.51.23,1.52-.43,2.46-2,2.56-3.26.21-6.26-.26-8-3.5a11.56,11.56,0,0,1,.08-12.1c.81-1.38,1.84-2.62,2.92-4.14-1.47-.86-3-.41-4.35-.48-1.09,0-1.91-.1-1.94-1.56s.88-1.5,1.93-1.49c6.48,0,12.95,0,19.43,0q8.79,0,17.56-.18c1,0,1.92.26,2.5-1.37,2.52-7,7.19-9.49,14.55-8a23.41,23.41,0,0,1,7.78,3.52c.65.41,1.8.73.87,1.92-.61.79-1,1.55-2.37.78a32.11,32.11,0,0,0-6.09-2.77c-4.16-1.34-8.45-.25-10.3,2.34-1.68,2.35-1.22,3.61,1.62,3.71,4.62.16,9.25.28,13.86,0,2.8-.15,3.52.89,3,3.36Zm-14,6.13c0,2.76,0,5,0,7.21,0,1.21.27,2,1.66,1.66,3-.73,5.57-2.14,6.83-5.14.52-1.25.58-2.74-1.48-2.22C300.05,141.31,298,140.33,295.54,139.16Zm-30.45-2.39c-2.15,1.76-5,2.81-4.67,4.31.4,1.85,2.51,3.6,4.67,4.73Z"/><path class="cls-6" d="M107.86,225.3c-5.45-4.63-7.31-10.81-7.37-17.65-.1-10.36,0-20.72-.07-31.09,0-4.89-.3-5.37-5-5.19-2.94.12-3.76-.71-3.71-3.66.16-8.89,0-8.89,9-8.89,8.24,0,16.48.16,24.72-.08,3.21-.09,4.26.95,3.75,4a11.67,11.67,0,0,0,0,1.87c0,2,.58,4.33-.25,5.9-1,1.87-3.57.58-5.44.85s-2.84,1.2-2.83,3.18c.06,11-.13,22,.19,33,.21,7.23,4.8,11.6,11.15,11.53,7.07-.08,11.51-4.25,12-11.55.75-10.85.14-21.72.35-32.58.05-2.82-1.36-3.94-3.93-3.52-4.07.66-4.87-1.13-4.73-4.88.29-7.64.09-7.65,7.6-7.65,7.24,0,14.48.08,21.72,0,2.2,0,3.32.41,3,2.85a29.07,29.07,0,0,0,0,3.37c-.05,2,.53,4.38-.4,5.8s-3.46.46-5.28.54c-3.21.15-3,2.47-3,4.56-.06,9,0,18,0,27,0,4.63-.12,9.25-1.8,13.64-1.15,3-2.55,5.94-5.08,8.12l-.75-.71c5-5.87,6.22-12.84,6.18-20.28-.05-9.61.14-19.22.18-28.83,0-3.22,1.55-5.2,4.74-4.86,3.76.39,4.14-1.51,3.82-4.38a9.33,9.33,0,0,1,0-2.24c.3-2.35-.46-3.29-3-3.24-7.73.16-15.48.13-23.22,0-2.17,0-3.35.41-3,2.85a10,10,0,0,1,0,3c-.48,3.06.61,4.25,3.81,4,2.94-.26,4.66,1.2,4.63,4.44-.11,11.24,0,22.48-.24,33.71-.17,7.11-5.27,11.89-12.47,12.44-6.78.53-11.74-3.43-13.16-10.6a29.65,29.65,0,0,1-.59-5.56q-.09-14.23,0-28.47c0-4.68,1-5.87,5.6-6,2.3,0,3.19-.75,2.94-3a15.1,15.1,0,0,1,0-3.36c.31-2.56-.61-3.48-3.29-3.43-8.24.16-16.48,0-24.72.08-7.45.1-6.41-1.62-6.59,6.81,0,2,.37,2.86,2.64,2.92,5.35.14,6.09,1,6.11,6.58,0,9.61.15,19.23,0,28.84-.12,7.13,1.31,13.62,6.34,19Z"/><path class="cls-6" d="M180.64,169.66c5.86-7.34,13.77-10.81,22.84-11.81a37.06,37.06,0,0,1,19.77,2.73c1.14.52,2,.86,2.65-.66.45-1.1,1.51-1,2.55-1.12,6.89-.43,6.9-.45,8.73,6.15,1.72,6.24,3.3,12.52,5.17,18.72.68,2.24.62,3.38-2,3.87-2.92.56-6,2.57-8.57,2s-3-4.5-4.62-6.83c-2.13-3.11-4.39-6.11-7.51-8.26a15.72,15.72,0,0,0-23.63,6.6c-4.86,10.94-3.83,21.77,3.53,31.42,5.41,7.09,15,8.53,22.91,4a36.53,36.53,0,0,0,11.84-10.72c1.25-1.79,2.29-1.94,3.77-.48a9.53,9.53,0,0,0,1.19.9c7.18,5.35,7.13,5.31,1.09,12.24-11.81,13.53-26.5,18.31-43.74,13.56-14.17-3.91-24.85-18.37-25.69-33.12-.52-9.38,1.24-18.1,6.71-25.89.84-1.2,1.55-2.55,3-3.23.93,1.82-.84,2.55-1.57,3.58-14.64,20.5-5,51,18.66,57.47,16.74,4.6,31-.45,42.1-13.92,4.43-5.35,4.44-5.16-.93-9.23-2.1-1.59-3.24-1.42-4.73.67a33.7,33.7,0,0,1-10,8.87c-10.14,6.27-21.36,3.77-27.57-6.37a31.09,31.09,0,0,1-2.37-29.06c4.81-11.94,18-15.11,28-7.07a24.54,24.54,0,0,1,7.13,9c1.83,4,4.25,5.05,8.11,3.12a4.27,4.27,0,0,1,1.41-.47c2.26-.25,2.41-1.4,1.85-3.36-1.9-6.58-3.58-13.22-5.44-19.81-.33-1.17-.15-3.13-2.13-3s-4.78-1.27-6.23,1c-1.26,2-2.31,1.42-3.94.81-14.49-5.43-27.86-3.89-39.82,6.47C182.5,169.06,182.14,170.77,180.64,169.66Z"/><path class="cls-6" d="M257.85,169.66c5.85-7.34,13.76-10.81,22.84-11.81a37,37,0,0,1,19.76,2.73c1.15.52,2,.86,2.65-.66.46-1.1,1.52-1,2.55-1.12,6.9-.43,6.91-.45,8.73,6.15,1.72,6.24,3.3,12.52,5.18,18.72.68,2.24.61,3.38-2,3.87-2.92.56-6,2.57-8.58,2s-3-4.5-4.61-6.83c-2.14-3.11-4.39-6.11-7.51-8.26a15.73,15.73,0,0,0-23.64,6.6c-4.86,10.94-3.82,21.77,3.54,31.42,5.41,7.09,15,8.53,22.9,4a36.67,36.67,0,0,0,11.85-10.72c1.24-1.79,2.29-1.94,3.76-.48a10.43,10.43,0,0,0,1.2.9c7.17,5.35,7.13,5.31,1.08,12.24-11.8,13.53-26.49,18.31-43.74,13.56C259.66,228,249,213.57,248.14,198.82c-.53-9.38,1.24-18.1,6.7-25.89.85-1.2,1.55-2.55,3-3.23.94,1.82-.83,2.55-1.57,3.58-14.63,20.5-5,51,18.67,57.47,16.73,4.6,30.95-.45,42.1-13.92,4.42-5.35,4.43-5.16-.94-9.23-2.1-1.59-3.24-1.42-4.73.67a33.58,33.58,0,0,1-10,8.87c-10.13,6.27-21.36,3.77-27.56-6.37a31.09,31.09,0,0,1-2.37-29.06c4.81-11.94,18-15.11,28-7.07a24.75,24.75,0,0,1,7.13,9c1.82,4,4.25,5.05,8.1,3.12a4.32,4.32,0,0,1,1.42-.47c2.26-.25,2.4-1.4,1.84-3.36-1.89-6.58-3.57-13.22-5.44-19.81-.33-1.17-.14-3.13-2.13-3s-4.78-1.27-6.23,1c-1.26,2-2.3,1.42-3.94.81-14.48-5.44-27.86-3.89-39.82,6.47C259.7,169.06,259.34,170.77,257.85,169.66Z"/><path class="cls-11" d="M223.52,132.75c-3.2.41-7.55-1.25-9.35.77-2.07,2.32-.5,6.64-.65,10.09-.09,2.12-.09,4.25,0,6.36.07,1.57-.69,1.83-2,1.85-1.51,0-1.52-.86-1.51-1.93,0-4.62-.13-9.24.06-13.85.1-2.36-.51-3.38-3-3.17-1.92.17-3.87,0-6.19,0,1.32,1.8,2.92,3.11,1.72,5.19-.37.64-.75,1.55-1.53,1.38s-2-.6-1.65-1.65c.51-1.56.18-2.2-1.37-1.7a2.07,2.07,0,0,0-1.34,3c1.26,2.65,3.36,2.35,5.72,1.49,1.15-.42,1.81-2.71,3.72-.9s1.68,3.35,1,5.39c-2,6-8,8.4-13.47,5.12-3.36-2-5.26-5.22-6.77-8.71-.62-1.43-.2-2.66,1.06-3.12,1.47-.54,1.24,1.2,1.56,1.9a17.41,17.41,0,0,0,4.69,6.65c3.6,2.86,7.3,1.88,9.27-2.39.07-.29.13-.57.2-.86l-.86.17c-6.16,1.29-10-1.23-9.57-6.23.15-1.88,1.33-3,3-4.78h-9.37c-1.13,0-2.33.15-2.3-1.59s1.38-1.42,2.41-1.43c6.73,0,13.46,0,20.19-.12,1.15,0,2.46.32,3.16-1.65,2.73-7.66,9.53-10.27,17.49-6.92,2.86,1.2,5.32,3.62,9.15,2.94-1.55,1.67-3.1,3.34-4.69,5.07,1.22,1.13,2.5.6,3.64.63s1.83.29,1.77,1.68c0,1.23-.69,1.42-1.68,1.39-2.49-.05-5-.07-7.47-.11A5.8,5.8,0,0,0,223.52,132.75Zm7.2-6.25c-4.25-2.84-7.4-3.73-11.1-3.21a6.59,6.59,0,0,0-5.69,4.22c-.29.74-.71,1.56.58,2.09C218.09,131.1,227.69,129.4,230.72,126.5Z"/><path class="cls-10" d="M115.6,249.09h12c1.49,0,3-.35,2.9,2.12-.07,2.3-1.51,2-2.77,1.83-2.67-.36-3.35.67-3.28,3.28.18,7.6.06,15.22.06,22.82,0,3.51-1.88,4.92-4.72,3a142.77,142.77,0,0,1-15.15-11.51c-1.8-1.59-1.69-4.53.64-6.56a35.81,35.81,0,0,1,12.5-7.23c1.33-.44,2.33-.74,2.18-2.4-.18-2.14-1.81-1.31-2.84-1.33q-7.11-.12-14.22,0c-1.66,0-2.45-.28-2.42-2.21s1.15-1.82,2.42-1.82C107.11,249.1,111.36,249.09,115.6,249.09Zm-7.28,18.66,11.62,9.05c0-5.17-.06-9.52,0-13.86,0-1.92-.7-2.11-2.23-1.41A31.37,31.37,0,0,0,108.32,267.75Z"/><path class="cls-6" d="M223.52,132.75a5.8,5.8,0,0,1,5,0c.25,1.55,1.84,1.38,2.75,2.05a9.84,9.84,0,0,1,1.91,14.2c-3.15,3.75-9.43,3.85-13.33,0a45.61,45.61,0,0,1-3.58-4.74,2.08,2.08,0,0,1,.4-3.26c1.74-1.22,1.65.92,2.13,1.55,1.35,1.79,2.49,3.72,4.42,5a5.16,5.16,0,0,0,6.25-.28,6,6,0,0,0-2.81-10.68c-.86-.09-1.88-.21-2.36.64a1.41,1.41,0,0,0,.9,2.09c1.14.42,1.13,1,.52,1.89a1.83,1.83,0,0,1-2.42,1c-2.94-.91-4-4.88-2-7.35C222,134.09,223.57,134.22,223.52,132.75Z"/><path class="cls-10" d="M131.09,256.5a8.06,8.06,0,0,1,8.53-7.95,8.17,8.17,0,0,1,8.09,8.1,8.4,8.4,0,0,1-8.44,8.2A8.25,8.25,0,0,1,131.09,256.5Zm8.24,4c2.47-.17,3.8-1.49,3.8-3.79s-1.16-4-3.82-4-3.72,1.59-3.65,4.1S137.14,260.36,139.33,260.52Z"/><path class="cls-10" d="M131.68,265.65q8.2,5.72,16.41,11.45c2,1.39.69,3.39,1.45,6.17-6.52-4.52-12.25-8.35-17.8-12.42C130.15,269.68,131.46,267.59,131.68,265.65Z"/><path class="cls-11" d="M309.48,133.13c1.11.1,1.2-1,1.85-1.54,2.12-1.6,4.36-2,6.48-.34a6.11,6.11,0,0,1,1.88,7.37c-1,2.67-3.14,3.33-5.72,2.87-2.85-.5-4.21-2.38-4.4-5.16-.07-1.1,0-2.2,0-3.3Zm5.35,5.27c1.4-.06,2.22-.74,2.24-2.06s-.55-2.51-2.09-2.6A2,2,0,0,0,312.6,136,2.29,2.29,0,0,0,314.83,138.4Z"/><path class="cls-6" d="M150.83,226.1c-3.91,4.14-9,6.19-14.38,7-10.56,1.58-20.5.27-28.54-7.74l1-.37c14,9.89,27.73,10,41.16.39Z"/><path class="cls-11" d="M322.09,155.39c-4.29-2.43-7.39-6.06-11.56-8.33-1-.58-.93-.81-.65-5.25C314.67,146.19,320.63,148.76,322.09,155.39Z"/><path class="cls-11" d="M106.92,277.61a2.76,2.76,0,0,1,2.82,3.15,2.87,2.87,0,0,1-3.17,2.89,3,3,0,0,1,.35-6Z"/><path class="cls-10" d="M187.54,280.14c-.06,2.42-1.29,3.4-3,3.49a2.72,2.72,0,0,1-3-3,2.78,2.78,0,0,1,3-3A2.85,2.85,0,0,1,187.54,280.14Z"/><path class="cls-6" d="M152.34,224.61l-1.51,1.49-.72-.72,1.48-1.48Z"/><path class="cls-6" d="M107.91,225.36l0-.06.36-1,.73.72Z"/><path class="cls-12" d="M109,225l-.73-.72c-5-5.35-6.46-11.84-6.34-19,.16-9.61.06-19.23,0-28.84,0-5.55-.76-6.44-6.11-6.58-2.27-.06-2.68-.94-2.64-2.92.18-8.43-.86-6.71,6.59-6.81,8.24-.11,16.48.08,24.72-.08,2.68,0,3.6.87,3.29,3.43a15.1,15.1,0,0,0,0,3.36c.25,2.28-.64,3-2.94,3-4.58.09-5.59,1.28-5.6,6q-.06,14.24,0,28.47a29.65,29.65,0,0,0,.59,5.56c1.42,7.17,6.38,11.13,13.16,10.6,7.2-.55,12.3-5.33,12.47-12.44.29-11.23.13-22.47.24-33.71,0-3.24-1.69-4.7-4.63-4.44-3.2.29-4.29-.9-3.81-4a10,10,0,0,0,0-3c-.35-2.44.83-2.88,3-2.85,7.74.11,15.49.14,23.22,0,2.58,0,3.34.89,3,3.24a9.33,9.33,0,0,0,0,2.24c.32,2.87-.06,4.77-3.82,4.38-3.19-.34-4.72,1.64-4.74,4.86,0,9.61-.23,19.22-.18,28.83,0,7.44-1.22,14.41-6.18,20.28l-1.48,1.48C136.68,235,122.9,234.88,109,225Z"/><path class="cls-12" d="M180.64,169.66c1.5,1.11,1.86-.6,2.5-1.15,12-10.36,25.33-11.9,39.82-6.47,1.63.61,2.68,1.19,3.94-.81,1.45-2.3,4.12-.85,6.23-1s1.8,1.78,2.13,3c1.86,6.59,3.54,13.23,5.44,19.81.56,2,.41,3.11-1.85,3.36a4.27,4.27,0,0,0-1.41.47c-3.86,1.93-6.28.92-8.11-3.12a24.54,24.54,0,0,0-7.13-9c-10-8-23.22-4.87-28,7.07a31.09,31.09,0,0,0,2.37,29.06c6.21,10.14,17.43,12.64,27.57,6.37a33.7,33.7,0,0,0,10-8.87c1.49-2.09,2.63-2.26,4.73-.67,5.37,4.07,5.36,3.88.93,9.23-11.14,13.47-25.36,18.52-42.1,13.92-23.69-6.5-33.3-37-18.66-57.47.73-1,2.5-1.76,1.57-3.58Z"/><path class="cls-12" d="M257.85,169.66c1.49,1.11,1.85-.6,2.49-1.15,12-10.36,25.34-11.91,39.82-6.47,1.64.61,2.68,1.2,3.94-.81,1.45-2.3,4.12-.85,6.23-1s1.8,1.78,2.13,3c1.87,6.59,3.55,13.23,5.44,19.81.56,2,.42,3.11-1.84,3.36a4.32,4.32,0,0,0-1.42.47c-3.85,1.93-6.28.92-8.1-3.12a24.75,24.75,0,0,0-7.13-9c-10-8-23.22-4.87-28,7.07a31.09,31.09,0,0,0,2.37,29.06c6.2,10.14,17.43,12.64,27.56,6.37a33.58,33.58,0,0,0,10-8.87c1.49-2.09,2.63-2.26,4.73-.67,5.37,4.07,5.36,3.88.94,9.23-11.15,13.47-25.37,18.52-42.1,13.92-23.7-6.5-33.3-37-18.67-57.47.74-1,2.51-1.76,1.57-3.58Z"/></g></g></svg>