<svg width="49" height="49" viewBox="0 0 49 49" fill="none" xmlns="http://www.w3.org/2000/svg">
<g id="hugeicons:students">
<g id="Group">
<path id="Vector" d="M6.5 13.1667L16.5 8.5L26.5 13.1667L21.9545 16.6667V20.1667C21.9545 20.1667 20.7418 19 16.5 19C12.2582 19 11.0455 20.1667 11.0455 20.1667V16.6667L6.5 13.1667ZM6.5 13.1667V22.5" stroke="#ED1C24" stroke-width="3" stroke-linecap="round" stroke-linejoin="round"/>
<path id="Vector_2" d="M22.4996 18.42V20.1269C22.4996 23.4254 19.8136 26.1 16.4997 26.1C13.1858 26.1 10.4999 23.4254 10.4999 20.1269V18.42M31.1354 23.2776C31.1354 23.2776 32.1053 22.5998 35.4992 22.5998C38.8932 22.5998 39.8631 23.2757 39.8631 23.2757M31.1354 23.2776V21.3L27.4994 19.38L35.4992 16.5L43.4991 19.38L39.8631 21.3V23.2757M31.1354 23.2776V23.8306C31.1354 24.9417 31.5951 26.0073 32.4135 26.7929C33.2319 27.5786 34.3419 28.02 35.4992 28.02C36.6566 28.02 37.7666 27.5786 38.585 26.7929C39.4034 26.0073 39.8631 24.9417 39.8631 23.8306V23.2757M32.4993 40.5H39.9091C41.4551 40.5 42.6831 39.7781 43.787 38.7682C46.047 36.7022 42.3371 35.051 40.9231 34.2427C39.6656 33.5302 38.2693 33.0728 36.8204 32.8987C35.3716 32.7247 33.9009 32.8377 32.4993 33.2309M9.26988 32.6779C7.38393 33.6898 2.43805 35.7538 5.44998 38.3362C6.92194 39.5976 8.5599 40.5 10.6218 40.5H22.3776C24.4375 40.5 26.0775 39.5976 27.5494 38.3362C30.5614 35.7538 25.6155 33.6898 23.7295 32.6779C19.3056 30.3067 13.6938 30.3067 9.26988 32.6779Z" stroke="#ED1C24" stroke-width="3" stroke-linecap="round" stroke-linejoin="round"/>
</g>
</g>
</svg>
