<svg width="49" height="49" viewBox="0 0 49 49" fill="none" xmlns="http://www.w3.org/2000/svg">
<g id="ph:student">
<path id="Vector" d="M42.9744 11.077L24.9744 5.07699C24.6665 4.97434 24.3335 4.97434 24.0256 5.07699L6.02562 11.077C5.72695 11.1766 5.46717 11.3676 5.28309 11.623C5.09902 11.8784 4.99998 12.1853 5 12.5001V27.5001C5 27.8979 5.15804 28.2795 5.43934 28.5608C5.72064 28.8421 6.10218 29.0001 6.5 29.0001C6.89782 29.0001 7.27936 28.8421 7.56066 28.5608C7.84196 28.2795 8 27.8979 8 27.5001V14.5814L14.2981 16.6795C12.6248 19.3829 12.0927 22.6398 12.8186 25.7352C13.5446 28.8306 15.4692 31.5113 18.17 33.1889C14.795 34.5126 11.8775 36.907 9.74375 40.1807C9.63278 40.3457 9.5557 40.531 9.51699 40.726C9.47828 40.921 9.47871 41.1217 9.51826 41.3165C9.55782 41.5113 9.6357 41.6964 9.74738 41.8608C9.85906 42.0253 10.0023 42.1659 10.1688 42.2745C10.3353 42.3831 10.5217 42.4575 10.7173 42.4934C10.9128 42.5293 11.1135 42.526 11.3077 42.4837C11.5019 42.4413 11.6858 42.3608 11.8487 42.2468C12.0115 42.1328 12.15 41.9875 12.2563 41.8195C15.0819 37.4845 19.5444 35.0001 24.5 35.0001C29.4556 35.0001 33.9181 37.4845 36.7438 41.8195C36.9638 42.1465 37.3036 42.3737 37.6898 42.4522C38.0761 42.5306 38.4776 42.4538 38.8077 42.2385C39.1378 42.0232 39.3699 41.6866 39.4539 41.3016C39.5378 40.9165 39.4668 40.5139 39.2562 40.1807C37.1225 36.907 34.1937 34.5126 30.83 33.1889C33.5282 31.5114 35.451 28.8324 36.1768 25.7393C36.9027 22.6462 36.3722 19.3915 34.7019 16.6889L42.9744 13.9326C43.2731 13.8331 43.533 13.6421 43.7171 13.3867C43.9012 13.1313 44.0003 12.8244 44.0003 12.5095C44.0003 12.1946 43.9012 11.8877 43.7171 11.6323C43.533 11.3769 43.2731 11.1859 42.9744 11.0864V11.077ZM33.5 23.0001C33.5004 24.423 33.1634 25.8256 32.5168 27.0931C31.8701 28.3605 30.9322 29.4565 29.7799 30.2912C28.6276 31.1259 27.2938 31.6756 25.888 31.895C24.4821 32.1144 23.0443 31.9974 21.6925 31.5536C20.3406 31.1097 19.1133 30.3516 18.1111 29.3416C17.109 28.3315 16.3606 27.0983 15.9273 25.743C15.4941 24.3877 15.3884 22.949 15.6188 21.5449C15.8493 20.1409 16.4094 18.8114 17.2531 17.6657L24.0256 19.9157C24.3335 20.0184 24.6665 20.0184 24.9744 19.9157L31.7469 17.6657C32.8864 19.2108 33.5008 21.0803 33.5 23.0001ZM24.5 16.9195L11.2437 12.5001L24.5 8.08074L37.7562 12.5001L24.5 16.9195Z" fill="#ED1C24"/>
</g>
</svg>
