<svg width="49" height="49" viewBox="0 0 49 49" fill="none" xmlns="http://www.w3.org/2000/svg">
<g id="la:chalkboard-teacher">
<path id="Vector" d="M6.5 9.5V12.5H39.5V36.5H18.5V39.5H45.5V36.5H42.5V9.5H6.5ZM12.503 14C10.9131 14.0055 9.3899 14.6394 8.26541 15.7633C7.14091 16.8872 6.50632 18.4101 6.5 20C6.5 23.2985 9.206 26 12.503 26C14.0921 25.9937 15.6142 25.3594 16.7376 24.2355C17.861 23.1115 18.4945 21.5891 18.5 20C18.5 16.7045 15.797 14 12.503 14ZM21.5 15.5V18.5H29V15.5H21.5ZM32 15.5V18.5H36.5V15.5H32ZM12.503 17C14.174 17 15.5 18.3245 15.5 20C15.5 21.68 14.1755 23 12.503 23C10.823 23 9.5 21.68 9.5 20C9.5 18.3245 10.8245 17 12.503 17ZM21.5 21.5V24.5H36.5V21.5H21.5ZM6.5 27.5V39.5H9.5V30.5H14V39.5H17V31.487L20.096 33.125C20.9735 33.59 22.028 33.5885 22.904 33.125V33.128L28.199 30.3275L26.7995 27.6725L21.503 30.473L16.859 28.022C16.211 27.6793 15.4891 27.5001 14.756 27.5H6.5Z" fill="#ED1C24"/>
</g>
</svg>
